<svg width="20" height="21" viewBox="0 0 20 21" fill="none" xmlns="http://www.w3.org/2000/svg">
<g clip-path="url(#clip0_1_95)">
<path d="M20.0001 11.9887C19.875 12.4207 19.6223 12.7421 19.1956 12.9067C19.0837 12.9503 19.0695 13.0473 19.0431 13.1394C18.7156 14.2847 18.3915 15.4309 18.0616 16.5757C17.7146 17.7813 16.9257 18.5185 15.7042 18.7894C15.3225 18.8742 15.322 18.8707 15.5014 19.2303C15.5991 19.4223 15.6969 19.6129 15.7878 19.8078C15.9139 20.0787 15.8425 20.332 15.6153 20.4481C15.388 20.5642 15.1431 20.477 15.0018 20.2031C14.7978 19.8113 14.6004 19.4148 14.4094 19.0138C14.3474 18.8839 14.2672 18.8369 14.1235 18.8369C11.3791 18.8408 8.63447 18.8408 5.88946 18.8369C5.74283 18.8369 5.66853 18.8918 5.60695 19.0187C5.40606 19.435 5.20028 19.8514 4.98375 20.258C4.87768 20.4588 4.69537 20.5269 4.4891 20.4799C4.40034 20.4562 4.32134 20.4049 4.2634 20.3335C4.20546 20.262 4.17155 20.1741 4.1665 20.0821C4.16486 19.9709 4.19341 19.8614 4.24911 19.7652C4.37179 19.5203 4.48617 19.2714 4.61765 19.0304C4.70074 18.88 4.66164 18.8237 4.50181 18.8061C3.84925 18.7384 3.23931 18.4495 2.77299 17.987C2.38415 17.6076 2.1041 17.1305 1.9621 16.6056C1.63852 15.4593 1.3081 14.3145 0.987463 13.1673C0.972663 13.0989 0.941608 13.035 0.896934 12.9812C0.852259 12.9274 0.795286 12.8852 0.730852 12.8582C0.206878 12.6098 -0.0575536 12.1072 0.010876 11.5292C0.0700186 11.0261 0.475709 10.5921 1.00066 10.4682C1.13605 10.4363 1.27291 10.4471 1.40879 10.4471C6.65734 10.4471 11.906 10.4471 17.1549 10.4471C17.2199 10.4471 17.2849 10.4442 17.3504 10.4471C17.4482 10.4515 17.4936 10.4045 17.4892 10.306C17.4868 10.2541 17.4892 10.2017 17.4892 10.1497C17.4892 7.55545 17.4892 4.96115 17.4892 2.36686C17.49 2.24326 17.4801 2.11984 17.4594 1.99799C17.4076 1.70407 17.238 1.51156 16.9619 1.42681C16.8379 1.383 16.7041 1.3753 16.576 1.40461C16.4479 1.43391 16.3307 1.49902 16.238 1.59239C15.9251 1.8961 15.6216 2.20961 15.3093 2.5143C15.2267 2.59464 15.2394 2.64657 15.3142 2.72102C15.4403 2.84594 15.4608 2.99975 15.4271 3.17267C15.2975 3.80361 15.1749 4.43553 15.0497 5.06745C15.0444 5.09293 15.0365 5.11644 15.0302 5.14289C14.9227 5.57397 14.536 5.68762 14.2242 5.36823C13.4095 4.53481 12.5993 3.69715 11.7935 2.85525C11.529 2.57896 11.6468 2.17679 12.0227 2.10527C12.6982 1.97644 13.3791 1.87553 14.059 1.76874C14.1944 1.74767 14.343 1.7462 14.4446 1.85642C14.5668 1.98868 14.6401 1.93039 14.7438 1.82997C15.0712 1.50372 15.3753 1.152 15.736 0.862006C16.2248 0.470118 16.78 0.397619 17.349 0.629323C17.9179 0.861026 18.2527 1.30533 18.3373 1.92941C18.3614 2.1429 18.3712 2.35778 18.3666 2.5726C18.3666 5.11464 18.3656 7.65669 18.3637 10.1987C18.3637 10.3746 18.394 10.4677 18.5963 10.4495C19.3119 10.3859 19.8281 10.8194 19.9982 11.4386L20.0001 11.9887ZM4.73838 17.1028C5.0033 17.1077 5.16606 16.9921 5.19441 16.7785C5.22276 16.565 5.10203 16.3749 4.88697 16.3514C4.55166 16.3141 4.41187 16.1162 4.33269 15.815C4.18948 15.2673 4.02867 14.7241 3.86835 14.1813C3.78916 13.9148 3.59658 13.7894 3.37712 13.8472C3.16841 13.9006 3.04915 14.1054 3.11807 14.3611C3.29647 15.0209 3.47488 15.6812 3.68603 16.3303C3.83511 16.7888 4.28919 17.0935 4.73838 17.1028Z" fill="#FFDE92"/>
<path d="M12.5196 5.06077C12.5304 5.18715 12.4576 5.2959 12.3657 5.39044C12.1164 5.64615 11.8657 5.90137 11.6086 6.14923C11.4003 6.35106 11.1432 6.36428 10.9624 6.19822C10.7708 6.0204 10.7669 5.76127 10.9751 5.53838C11.2327 5.26357 11.5025 4.99953 11.7738 4.73844C11.8378 4.67206 11.9215 4.62813 12.0125 4.61313C12.1034 4.59813 12.1967 4.61287 12.2787 4.65516C12.4395 4.72815 12.5221 4.86237 12.5196 5.06077Z" fill="#FFDE92"/>
<path d="M11.2533 7.1131C11.3309 7.11097 11.4077 7.13038 11.475 7.1692C11.5424 7.20801 11.5977 7.26471 11.635 7.33305C11.7205 7.48295 11.7235 7.64362 11.6194 7.77393C11.3346 8.12868 11.0128 8.45187 10.6594 8.73797C10.4952 8.87072 10.2512 8.82663 10.11 8.6787C10.0381 8.60635 9.9952 8.51007 9.98944 8.40813C9.98367 8.30619 10.0154 8.20567 10.0787 8.12564C10.3607 7.79485 10.6671 7.4857 10.9952 7.20079C11.0688 7.14311 11.1598 7.11219 11.2533 7.1131Z" fill="#FFDE92"/>
<path d="M9.57378 5.44415C9.77223 5.44415 9.89882 5.5289 9.97556 5.67732C10.0523 5.82575 10.0567 5.99034 9.94672 6.1182C9.66117 6.45492 9.34879 6.76783 9.01266 7.05383C8.83377 7.20569 8.60062 7.17091 8.44812 7.01219C8.29562 6.85348 8.26824 6.63549 8.41341 6.4611C8.69965 6.12575 9.01005 5.81189 9.3421 5.52204C9.40607 5.46649 9.48933 5.4385 9.57378 5.44415Z" fill="#FFDE92"/>
</g>
<defs>
<clipPath id="clip0_1_95">
<rect width="20" height="20" fill="white" transform="translate(0 0.5)"/>
</clipPath>
</defs>
</svg>
