<svg width="20" height="21" viewBox="0 0 20 21" fill="none" xmlns="http://www.w3.org/2000/svg">
<g clip-path="url(#clip0_1_92)">
<path d="M16.25 5.49998H12.0833C11.0891 5.50109 10.1359 5.89653 9.4329 6.59955C8.72988 7.30257 8.33444 8.25576 8.33333 9.24998V12.1666H2.5V3.41665C2.5 3.08513 2.3683 2.76719 2.13388 2.53277C1.89946 2.29834 1.58152 2.16665 1.25 2.16665C0.918479 2.16665 0.600537 2.29834 0.366116 2.53277C0.131696 2.76719 0 3.08513 0 3.41665L0 17.5833C0 17.9148 0.131696 18.2328 0.366116 18.4672C0.600537 18.7016 0.918479 18.8333 1.25 18.8333C1.58152 18.8333 1.89946 18.7016 2.13388 18.4672C2.3683 18.2328 2.5 17.9148 2.5 17.5833V16.3333H17.5V17.5833C17.5 17.9148 17.6317 18.2328 17.8661 18.4672C18.1005 18.7016 18.4185 18.8333 18.75 18.8333C19.0815 18.8333 19.3995 18.7016 19.6339 18.4672C19.8683 18.2328 20 17.9148 20 17.5833V9.24998C19.9989 8.25576 19.6035 7.30257 18.9004 6.59955C18.1974 5.89653 17.2442 5.50109 16.25 5.49998ZM17.5 12.1666H10.8333V9.24998C10.8333 8.91846 10.965 8.60052 11.1994 8.3661C11.4339 8.13168 11.7518 7.99998 12.0833 7.99998H16.25C16.5815 7.99998 16.8995 8.13168 17.1339 8.3661C17.3683 8.60052 17.5 8.91846 17.5 9.24998V12.1666ZM5.41667 12.1666C5.00462 12.1666 4.60183 12.0445 4.25923 11.8155C3.91663 11.5866 3.6496 11.2613 3.49192 10.8806C3.33423 10.4999 3.29298 10.081 3.37336 9.67688C3.45375 9.27275 3.65217 8.90154 3.94353 8.61018C4.23489 8.31882 4.6061 8.1204 5.01023 8.04001C5.41436 7.95963 5.83324 8.00088 6.21392 8.15857C6.5946 8.31625 6.91998 8.58327 7.1489 8.92588C7.37781 9.26848 7.5 9.67127 7.5 10.0833C7.5 10.6358 7.28051 11.1658 6.88981 11.5565C6.4991 11.9472 5.9692 12.1666 5.41667 12.1666Z" fill="#FFDE92"/>
</g>
<defs>
<clipPath id="clip0_1_92">
<rect width="20" height="20" fill="white" transform="translate(0 0.5)"/>
</clipPath>
</defs>
</svg>
