<svg width="24" height="17" viewBox="0 0 24 17" fill="none" xmlns="http://www.w3.org/2000/svg">
<path d="M20.5874 16.5043C20.13 16.5043 19.6726 16.5043 19.2152 16.5043C18.7884 16.5043 18.5097 16.2949 18.385 15.8882C18.3617 15.8102 18.3684 15.7128 18.2517 15.7095C17.681 15.6935 17.1495 15.4715 16.5901 15.3921C15.94 15.3001 15.2859 15.2508 14.6325 15.2114C13.7784 15.1601 12.9216 15.1061 12.0668 15.1201C11.0794 15.1361 10.0906 15.1514 9.10442 15.2348C8.36032 15.3014 7.61288 15.3328 6.88278 15.5061C6.5194 15.5928 6.16202 15.7115 5.78263 15.7062C5.67995 15.7062 5.64928 15.7595 5.61927 15.8528C5.47325 16.3256 5.22922 16.5036 4.74515 16.5043C3.84725 16.5043 2.94913 16.5043 2.05078 16.5043C1.61138 16.5043 1.31734 16.2889 1.21533 15.8689C1.20808 15.8207 1.18731 15.7756 1.15544 15.7388C1.12358 15.7019 1.08192 15.6749 1.0353 15.6608C0.753264 15.5608 0.587907 15.3534 0.509229 15.0721C0.211766 14.0505 0.0435434 12.9957 0.00849445 11.9323C-0.0308512 10.603 0.0627379 9.2731 0.287867 7.96241C0.42922 7.15297 0.839944 6.5969 1.56738 6.24285C1.90809 6.07683 1.90076 6.06215 1.70473 5.73077C1.6321 5.60868 1.59248 5.46978 1.58977 5.32774C1.58707 5.1857 1.62137 5.0454 1.68931 4.92063C1.75724 4.79586 1.85647 4.6909 1.97725 4.61609C2.09802 4.54128 2.23619 4.49919 2.37816 4.49394C2.60219 4.47994 2.82688 4.47994 3.05092 4.49394C3.28162 4.51528 3.3923 4.41726 3.48431 4.21657C3.74518 3.63196 4.07465 3.08046 4.46578 2.57367C5.1132 1.74822 5.99599 1.31816 6.98213 1.05813C8.10228 0.762087 9.24511 0.624065 10.3999 0.54272C11.2227 0.485379 12.0455 0.486048 12.8669 0.508051C14.1871 0.543352 15.5008 0.704774 16.7902 0.990117C18.4184 1.34817 19.6066 2.25296 20.276 3.7665C20.536 4.35459 20.8627 4.59995 21.4908 4.49994C21.8402 4.44326 22.1336 4.59528 22.3016 4.916C22.3849 5.06149 22.4215 5.22909 22.4063 5.39607C22.3912 5.56305 22.3251 5.72133 22.2169 5.84946C22.1062 5.99281 22.1409 6.10616 22.2943 6.16684C23.4711 6.62957 23.7145 7.64237 23.8445 8.74053C23.9737 9.82157 24.0225 10.9107 23.9905 11.999C23.9505 13.0542 23.7796 14.1003 23.4818 15.1134C23.4491 15.2393 23.3856 15.3551 23.297 15.4503C23.2084 15.5455 23.0975 15.6172 22.9743 15.6588C22.9238 15.6732 22.8785 15.7022 22.8444 15.7421C22.8102 15.7821 22.7886 15.8313 22.7823 15.8835C22.6943 16.2669 22.3823 16.5003 21.9822 16.5036C21.5188 16.5089 21.0527 16.5043 20.5874 16.5043ZM12.2609 5.65743C12.6769 5.65743 13.351 5.64276 14.0244 5.65743C15.6113 5.69744 17.1975 5.75545 18.7844 5.79878C19.1598 5.80879 19.3178 5.56075 19.1558 5.22003C18.9938 4.87932 18.8318 4.56395 18.6624 4.2399C18.2437 3.43579 17.5996 2.92239 16.7175 2.68769C15.596 2.38831 14.4505 2.24562 13.299 2.18028C12.2621 2.12261 11.2224 2.13597 10.1872 2.22029C9.20956 2.28915 8.24001 2.44535 7.29017 2.68702C6.46006 2.90572 5.8153 3.36178 5.40591 4.12589C5.22922 4.45527 5.05453 4.78598 4.88917 5.12202C4.65581 5.59809 4.79782 5.81812 5.32256 5.80145C6.37738 5.76812 7.43219 5.71744 8.48701 5.70144C9.65917 5.68677 10.8307 5.60409 12.2609 5.65743ZM14.7792 13.2471C15.3126 13.2218 15.846 13.2518 16.3734 13.2211C16.683 13.2046 16.9804 13.0947 17.2262 12.9058C17.6789 12.5584 17.6529 12.0923 17.1642 11.7983C16.9413 11.6686 16.7017 11.5699 16.4521 11.5049C14.9699 11.0928 13.4517 10.9262 11.9181 10.9242C10.7807 10.9242 9.65117 11.0668 8.52901 11.2662C7.90959 11.3749 7.28617 11.5082 6.75276 11.8756C6.35271 12.153 6.33871 12.5324 6.71609 12.8438C7.01242 13.0923 7.38746 13.2275 7.77424 13.2251C8.47167 13.2251 9.16777 13.2625 9.86586 13.2538C11.5041 13.2332 13.1417 13.2471 14.7792 13.2471ZM2.37282 7.71972C2.28148 7.71972 2.18946 7.71439 2.09879 7.71972C1.78941 7.73972 1.66739 7.83107 1.64872 8.14044C1.60872 8.7852 1.80141 9.16259 2.48417 9.2286C3.43764 9.32128 4.39044 9.21126 5.34057 9.12792C5.3957 9.1275 5.44905 9.10831 5.49183 9.07353C5.53461 9.03875 5.56427 8.99045 5.57593 8.93656C5.60127 8.81721 5.50926 8.75587 5.42525 8.70252C4.49178 8.11444 3.44964 7.86174 2.37282 7.71972ZM20.4367 9.24126C20.784 9.22726 21.1301 9.28994 21.4808 9.24126C22.2356 9.13458 22.3849 8.76853 22.3423 8.10177C22.3216 7.77973 22.2296 7.72972 21.9095 7.71505C21.2048 7.68371 20.5493 7.90508 19.8886 8.09977C19.4141 8.23098 18.9639 8.43765 18.5551 8.71186C18.4624 8.77854 18.3817 8.85388 18.4144 8.97856C18.4471 9.10325 18.5557 9.12525 18.6698 9.13391C19.2592 9.17459 19.8452 9.25727 20.4367 9.24126Z" fill="#FFDE92"/>
</svg>
