<svg width="12" height="12" viewBox="0 0 12 12" fill="none" xmlns="http://www.w3.org/2000/svg">
<g clip-path="url(#clip0_1_63)">
<path d="M1.99993 11.0001C1.80281 11.0006 1.60754 10.962 1.42542 10.8866C1.2433 10.8111 1.07795 10.7003 0.938934 10.5606L0.166934 9.87356C0.0678757 9.78524 0.00795837 9.66119 0.000363146 9.5287C-0.00723208 9.39621 0.038117 9.26612 0.126434 9.16706C0.214751 9.068 0.338802 9.00809 0.471296 9.00049C0.603791 8.9929 0.733876 9.03825 0.832934 9.12656L1.62543 9.83356C1.6708 9.88451 1.72612 9.92564 1.78797 9.95441C1.84983 9.98318 1.91692 9.99899 1.98511 10.0009C2.05331 10.0027 2.12116 9.99063 2.18451 9.9653C2.24785 9.93997 2.30534 9.90194 2.35343 9.85356L4.15343 8.13806C4.20045 8.09024 4.2566 8.05237 4.31855 8.0267C4.3805 8.00103 4.44698 7.98808 4.51404 7.98863C4.5811 7.98918 4.64736 8.00321 4.70888 8.02989C4.77041 8.05656 4.82593 8.09535 4.87216 8.14392C4.91839 8.1925 4.95438 8.24988 4.97798 8.31265C5.00158 8.37542 5.01231 8.44229 5.00954 8.5093C5.00676 8.5763 4.99054 8.64206 4.96183 8.70266C4.93312 8.76326 4.89252 8.81747 4.84243 8.86206L3.04993 10.5691C2.91182 10.7064 2.748 10.8151 2.56783 10.8891C2.38766 10.963 2.19469 11.0007 1.99993 11.0001ZM11.4999 10.5001H6.49993C6.36733 10.5001 6.24015 10.4474 6.14638 10.3536C6.05261 10.2598 5.99993 10.1327 5.99993 10.0001C5.99993 9.86745 6.05261 9.74028 6.14638 9.64651C6.24015 9.55274 6.36733 9.50006 6.49993 9.50006H11.4999C11.6325 9.50006 11.7597 9.55274 11.8535 9.64651C11.9473 9.74028 11.9999 9.86745 11.9999 10.0001C11.9999 10.1327 11.9473 10.2598 11.8535 10.3536C11.7597 10.4474 11.6325 10.5001 11.4999 10.5001ZM1.99993 7.00006C1.80281 7.00058 1.60754 6.962 1.42542 6.88656C1.2433 6.81112 1.07795 6.70032 0.938934 6.56056L0.146434 5.76806C0.0553551 5.67376 0.00495786 5.54746 0.00609707 5.41636C0.00723628 5.28526 0.0598207 5.15986 0.152525 5.06715C0.245229 4.97445 0.370635 4.92186 0.501733 4.92072C0.632832 4.91959 0.759133 4.96998 0.853434 5.06106L1.64643 5.85356C1.74162 5.94458 1.86824 5.99537 1.99993 5.99537C2.13163 5.99537 2.25825 5.94458 2.35343 5.85356L4.15343 4.13806C4.24944 4.04643 4.37792 3.99669 4.5106 3.99978C4.64328 4.00288 4.7693 4.05855 4.86093 4.15456C4.95257 4.25057 5.00231 4.37905 4.99921 4.51173C4.99612 4.64441 4.94044 4.77043 4.84443 4.86206L3.04993 6.56906C2.91182 6.70637 2.748 6.81511 2.56783 6.88906C2.38766 6.96302 2.19469 7.00074 1.99993 7.00006ZM11.4999 6.50006H6.49993C6.36733 6.50006 6.24015 6.44738 6.14638 6.35361C6.05261 6.25985 5.99993 6.13267 5.99993 6.00006C5.99993 5.86745 6.05261 5.74028 6.14638 5.64651C6.24015 5.55274 6.36733 5.50006 6.49993 5.50006H11.4999C11.6325 5.50006 11.7597 5.55274 11.8535 5.64651C11.9473 5.74028 11.9999 5.86745 11.9999 6.00006C11.9999 6.13267 11.9473 6.25985 11.8535 6.35361C11.7597 6.44738 11.6325 6.50006 11.4999 6.50006ZM1.99993 3.00006C1.80281 3.00058 1.60754 2.962 1.42542 2.88656C1.2433 2.81112 1.07795 2.70032 0.938934 2.56056L0.166934 1.87356C0.0678757 1.78524 0.00795837 1.66119 0.000363146 1.5287C-0.00723208 1.39621 0.038117 1.26612 0.126434 1.16706C0.214751 1.068 0.338802 1.00809 0.471296 1.00049C0.603791 0.992895 0.733876 1.03824 0.832934 1.12656L1.62543 1.83356C1.6708 1.88451 1.72612 1.92563 1.78797 1.95441C1.84983 1.98318 1.91692 1.99899 1.98511 2.00086C2.05331 2.00273 2.12116 1.99063 2.18451 1.9653C2.24785 1.93997 2.30534 1.90194 2.35343 1.85356L4.15543 0.138062C4.25233 0.0517968 4.37896 0.00657123 4.50859 0.0119372C4.63821 0.0173032 4.76067 0.0728407 4.8501 0.166819C4.93954 0.260798 4.98895 0.385859 4.98789 0.515587C4.98683 0.645316 4.93539 0.769554 4.84443 0.862062L3.04993 2.56906C2.91182 2.70637 2.748 2.81511 2.56783 2.88906C2.38766 2.96302 2.19469 3.00074 1.99993 3.00006ZM11.4999 2.50006H6.49993C6.36733 2.50006 6.24015 2.44738 6.14638 2.35362C6.05261 2.25985 5.99993 2.13267 5.99993 2.00006C5.99993 1.86745 6.05261 1.74028 6.14638 1.64651C6.24015 1.55274 6.36733 1.50006 6.49993 1.50006H11.4999C11.6325 1.50006 11.7597 1.55274 11.8535 1.64651C11.9473 1.74028 11.9999 1.86745 11.9999 2.00006C11.9999 2.13267 11.9473 2.25985 11.8535 2.35362C11.7597 2.44738 11.6325 2.50006 11.4999 2.50006Z" fill="#7A7878"/>
</g>
<defs>
<clipPath id="clip0_1_63">
<rect width="12" height="12" fill="white"/>
</clipPath>
</defs>
</svg>
