<svg width="12" height="12" viewBox="0 0 12 12" fill="none" xmlns="http://www.w3.org/2000/svg">
<g clip-path="url(#clip0_1_69)">
<path d="M8.29249 4.80794L7.60499 2.99994H8.81599C9.27644 3.00105 9.7302 3.1102 10.1408 3.31862C10.5514 3.52704 10.9073 3.8289 11.18 4.19994L11.5735 4.73744C11.7412 4.96621 11.8634 5.22507 11.9335 5.49994H8.47599C8.44049 5.26322 8.37895 5.03114 8.29249 4.80794ZM5.99999 1.99994C6.13259 1.99994 6.25977 1.94726 6.35354 1.85349C6.44731 1.75972 6.49999 1.63255 6.49999 1.49994V0.499938C6.49999 0.36733 6.44731 0.240153 6.35354 0.146385C6.25977 0.0526165 6.13259 -6.19482e-05 5.99999 -6.19482e-05C5.86738 -6.19482e-05 5.7402 0.0526165 5.64643 0.146385C5.55266 0.240153 5.49999 0.36733 5.49999 0.499938V1.49994C5.49999 1.63255 5.55266 1.75972 5.64643 1.85349C5.7402 1.94726 5.86738 1.99994 5.99999 1.99994ZM7.36099 5.17144L6.53549 2.99994H5.46899L4.62999 5.22594C4.5978 5.31557 4.57109 5.40707 4.54999 5.49994H7.46049C7.43551 5.38812 7.40225 5.27832 7.36099 5.17144ZM8.27649 1.94994C8.33552 1.97962 8.39985 1.99731 8.46576 2.00198C8.53166 2.00664 8.59784 1.9982 8.66047 1.97714C8.7231 1.95608 8.78093 1.92282 8.83062 1.87927C8.88032 1.83572 8.92089 1.78276 8.94999 1.72344L9.44999 0.723438C9.50926 0.604754 9.51896 0.467383 9.47695 0.341546C9.43495 0.215709 9.34467 0.111714 9.22599 0.0524381C9.1073 -0.00683783 8.96993 -0.0165387 8.84409 0.0254694C8.71826 0.0674776 8.61426 0.157754 8.55499 0.276438L8.05499 1.27644C8.02513 1.33517 8.00717 1.39922 8.00215 1.46492C7.99713 1.53061 8.00514 1.59665 8.02572 1.65924C8.04631 1.72182 8.07906 1.77972 8.12209 1.82961C8.16513 1.8795 8.2176 1.92039 8.27649 1.94994ZM5.99399 9.44344L7.38699 6.81694C7.42234 6.7134 7.45024 6.60746 7.47049 6.49994H4.49999C4.52247 6.62873 4.55592 6.75535 4.59999 6.87844L5.99399 9.44344ZM3.69999 4.86444L4.39999 2.99994H3.19149C2.7405 3.00112 2.2958 3.10582 1.89166 3.30598C1.48752 3.50614 1.13474 3.79642 0.860486 4.15444L0.449986 4.69144C0.269118 4.9319 0.139914 5.20716 0.0704858 5.49994H3.52049C3.55892 5.28264 3.61905 5.06974 3.69999 4.86444ZM8.48449 6.49994C8.45299 6.73887 8.39531 6.97362 8.31249 7.19994C8.30499 7.21994 6.43449 10.7369 6.43299 10.7374C6.39225 10.8166 6.3306 10.883 6.25473 10.9295C6.17886 10.976 6.09169 11.0008 6.0027 11.0012C5.91371 11.0017 5.82631 10.9777 5.75002 10.9318C5.67372 10.886 5.61145 10.8202 5.56999 10.7414C5.56999 10.7414 3.68299 7.28544 3.67499 7.26394C3.58542 7.01727 3.52567 6.76079 3.49699 6.49994H0.0604858C0.152955 6.94733 0.385531 7.35364 0.724486 7.65994L4.71949 11.5134C5.07037 11.8264 5.52434 11.9989 5.99449 11.9979C6.4746 11.997 6.93748 11.819 7.29449 11.4979L11.2625 7.68144C11.6102 7.37049 11.8493 6.95649 11.945 6.49994H8.48449ZM3.05249 1.72344C3.11176 1.84245 3.21589 1.93305 3.34196 1.97529C3.46803 2.01753 3.60572 2.00796 3.72474 1.94869C3.84375 1.88941 3.93435 1.78529 3.97659 1.65921C4.01883 1.53314 4.00926 1.39545 3.94999 1.27644L3.44999 0.276438C3.42064 0.217671 3.38 0.165261 3.33039 0.1222C3.28079 0.0791389 3.22319 0.0462697 3.16088 0.0254694C3.03504 -0.0165387 2.89767 -0.00683783 2.77899 0.0524381C2.6603 0.111714 2.57003 0.215709 2.52802 0.341546C2.48601 0.467383 2.49571 0.604754 2.55499 0.723438L3.05249 1.72344Z" fill="white"/>
</g>
<defs>
<clipPath id="clip0_1_69">
<rect width="12" height="12" fill="white"/>
</clipPath>
</defs>
</svg>
