<svg width="24" height="21" viewBox="0 0 24 21" fill="none" xmlns="http://www.w3.org/2000/svg">
<g clip-path="url(#clip0_1_77)">
<path d="M3.60446 10.2679C2.24906 9.84967 1.46213 8.98554 1.2541 7.61658C1.20446 7.28004 1.2541 7.23797 1.60164 7.2736C2.08271 7.318 2.54479 7.4826 2.94513 7.75219C3.12535 7.87345 3.14819 7.82198 3.16755 7.63242C3.22932 7.01922 3.47736 6.43941 3.87851 5.97048C4.02746 5.79181 4.1342 5.80567 4.27322 5.98186C4.65005 6.46045 4.90723 6.98704 4.95638 7.59877C4.97326 7.80664 5.01248 7.87741 5.21902 7.73636C5.6311 7.45524 6.10028 7.32508 6.59279 7.25826C6.82663 7.22659 6.89068 7.30775 6.88671 7.53047C6.87628 8.55496 6.07396 9.65863 5.00454 10.1041C4.91157 10.1351 4.82942 10.1919 4.76772 10.2679C5.081 10.2679 5.39428 10.2679 5.70706 10.2679C6.04268 10.2679 6.05112 10.2778 5.95977 10.594C5.7726 11.2409 5.58741 11.8888 5.38832 12.5321C5.31931 12.7549 5.3625 12.8291 5.60777 12.8261C6.3649 12.8138 7.12303 12.8261 7.88017 12.8177C8.09862 12.8152 8.17458 12.884 8.17359 13.1058C8.16763 15.3402 8.16763 17.5747 8.17359 19.8095C8.17359 20.0302 8.1011 20.1035 7.88116 20.098C7.17367 20.0797 7.28538 20.1747 7.27843 19.511C7.27247 19.0765 7.27049 18.642 7.27843 18.2079C7.2824 18.0198 7.20992 17.9634 7.02721 17.9634C5.06676 17.9677 3.10599 17.9677 1.14488 17.9634C0.936355 17.9634 0.889189 18.0466 0.892168 18.2332C0.901104 18.7652 0.889685 19.2972 0.897629 19.8293C0.900608 20.0178 0.844009 20.1015 0.640451 20.0975C-0.119168 20.0822 0.0064421 20.1797 0.00445617 19.4922C-0.00150163 17.3908 0.00445617 15.2894 0.00445617 13.1874C0.00445617 12.8237 0.00445608 12.8227 0.372847 12.8222C1.07686 12.8222 1.78104 12.8222 2.48538 12.8222C2.81058 12.8222 2.81654 12.8143 2.73015 12.5128C2.54496 11.8655 2.35679 11.2186 2.17309 10.5708C2.09167 10.2847 2.10309 10.2709 2.40098 10.2694C2.7932 10.2679 3.18542 10.2679 3.60446 10.2679ZM4.0925 15.8031C4.25237 15.8031 4.41223 15.8056 4.57161 15.8031C5.21703 15.7902 5.12866 15.9199 5.14306 15.2211C5.14703 15.0231 5.05717 14.984 4.88439 14.987C4.4589 14.9944 4.03292 14.984 3.60694 14.9904C2.96151 14.9998 3.04839 14.8731 3.03648 15.5715C3.0335 15.7417 3.09258 15.8115 3.26734 15.8056C3.54041 15.7962 3.81546 15.8026 4.0925 15.8031Z" fill="#FFDE92"/>
<path d="M16.9301 7.71607C17.8828 7.71607 18.8361 7.7126 19.7888 7.71607C20.8975 7.72102 21.8617 8.66929 21.8567 9.77049C21.8527 10.6465 21.9525 11.523 21.8631 12.3995C21.8517 12.5099 21.8393 12.6094 21.7355 12.6747C21.2788 12.9622 21.0588 13.3928 21.0137 13.912C20.9943 14.1387 20.9094 14.1065 20.7654 14.0184C20.3901 13.7868 19.9686 13.7135 19.5376 13.712C17.9077 13.7056 16.2777 13.6932 14.6482 13.718C14.0862 13.7264 13.5014 13.718 12.9935 14.0427C12.8664 14.1238 12.849 14.0521 12.8306 13.9471C12.7874 13.7041 12.772 13.4522 12.6355 13.2349C12.5268 13.0607 12.4171 12.8796 12.2383 12.7781C12.0313 12.6618 11.9757 12.5064 11.9792 12.2783C11.9916 11.4458 11.9792 10.6123 11.9851 9.7794C11.9901 8.66384 12.9448 7.72052 14.0703 7.71359H16.9296L16.9301 7.71607Z" fill="#FFDE92"/>
<path d="M9.03847 13.7962C8.97243 13.6566 8.98882 13.5141 8.98882 13.374C8.98882 10.9093 8.98882 8.44459 8.98882 5.97988C8.98882 5.62552 8.98882 5.62502 8.64128 5.62453C7.99089 5.62453 7.34 5.6176 6.6896 5.62799C6.47165 5.63195 6.40611 5.54633 6.42498 5.3449C6.50591 4.49066 6.58286 3.63593 6.6613 2.7812C6.70797 2.27044 6.76706 1.76018 6.79486 1.24694C6.80876 0.989585 6.89416 0.897035 7.16325 0.900499C8.66908 0.911882 10.1749 0.905944 11.6812 0.906439C12.0467 0.906439 12.0432 0.918317 12.074 1.27615C12.1688 2.37735 12.2755 3.47805 12.3768 4.57925C12.4007 4.83463 12.4185 5.091 12.4458 5.34589C12.4672 5.54782 12.3962 5.63195 12.1802 5.62849C11.5209 5.6181 10.8611 5.6369 10.2022 5.61909C9.93611 5.61216 9.87603 5.7057 9.87703 5.95415C9.88596 8.06449 9.88001 10.1743 9.88497 12.2847C9.88497 12.4827 9.84625 12.6252 9.66155 12.7504C9.29962 12.9949 9.09904 13.3557 9.03847 13.7962Z" fill="#FFDE92"/>
<path d="M16.9306 17.5056C18.1777 17.5056 19.4254 17.5116 20.6726 17.5007C20.9238 17.5007 21.0201 17.565 21.0102 17.8273C20.9928 18.4118 21.0067 18.9973 21.0037 19.5823C21.0037 19.949 20.8548 20.0955 20.4814 20.0955C18.1115 20.0955 15.7416 20.0955 13.3718 20.0955C12.9835 20.0955 12.8415 19.9525 12.8395 19.5655C12.8395 18.9978 12.8395 18.4306 12.8395 17.8634C12.8395 17.5076 12.8395 17.5061 13.1871 17.5061C14.4352 17.5051 15.6831 17.505 16.9306 17.5056Z" fill="#FFDE92"/>
<path d="M16.9087 16.691C15.6621 16.691 14.4154 16.685 13.1687 16.6964C12.9145 16.6964 12.8108 16.6271 12.8356 16.3673C12.8539 16.1743 12.8356 15.9778 12.8395 15.7828C12.8391 15.4513 12.9705 15.1331 13.2049 14.8978C13.4393 14.6626 13.7576 14.5295 14.0902 14.5277C15.9768 14.5244 17.8646 14.5244 19.7536 14.5277C20.0816 14.5293 20.3961 14.6588 20.6297 14.8884C20.8633 15.118 20.9975 15.4296 21.0037 15.7566C21.0072 15.9689 20.9913 16.1827 21.0082 16.394C21.0271 16.6311 20.9327 16.6969 20.7019 16.6954C19.4373 16.6865 18.1733 16.691 16.9087 16.691Z" fill="#FFDE92"/>
<path d="M9.84475 16.6737C9.84475 15.7967 9.84475 14.9195 9.84475 14.0422C9.84475 13.5472 10.0538 13.3161 10.5423 13.2424C10.8536 13.1929 11.1619 13.1775 11.4707 13.2468C11.8004 13.3211 12.0169 13.571 12.0169 13.9085C12.0208 15.742 12.0208 17.5761 12.0169 19.4106C12.0169 19.81 11.7249 20.0861 11.3193 20.095C11.0611 20.1003 10.803 20.1003 10.5448 20.095C10.1278 20.0861 9.84724 19.8055 9.84525 19.3848C9.84178 18.4836 9.84475 17.5774 9.84475 16.6737Z" fill="#FFDE92"/>
<path d="M24.0015 16.6712C24.0015 17.5403 24.0015 18.409 24.0015 19.2774C24.0015 19.8496 23.7498 20.0951 23.1669 20.0965C22.9529 20.0965 22.7389 20.1 22.5254 20.0965C22.1193 20.0871 21.8304 19.811 21.8279 19.4111C21.8236 17.5851 21.8236 15.759 21.8279 13.9328C21.8279 13.566 22.0865 13.3003 22.448 13.2513C22.7475 13.2071 23.0517 13.2058 23.3516 13.2473C23.7453 13.3052 23.997 13.5616 24 13.96C24.0015 14.8627 24.0015 15.767 24.0015 16.6712Z" fill="#FFDE92"/>
</g>
<defs>
<clipPath id="clip0_1_77">
<rect width="24" height="19.2" fill="white" transform="translate(0 0.900002)"/>
</clipPath>
</defs>
</svg>
