<svg width="13" height="12" viewBox="0 0 13 12" fill="none" xmlns="http://www.w3.org/2000/svg">
<g clip-path="url(#clip0_1_66)">
<path d="M6.49999 0.0212326C5.17696 0.0226882 3.90853 0.54887 2.97296 1.48435C2.03739 2.41982 1.51108 3.6882 1.50949 5.01123C1.50949 6.29623 2.50449 8.30723 4.46699 10.9882C4.70062 11.3083 5.00652 11.5687 5.35979 11.7482C5.71306 11.9277 6.10373 12.0213 6.49999 12.0213C6.89625 12.0213 7.28692 11.9277 7.64019 11.7482C7.99346 11.5687 8.29936 11.3083 8.53299 10.9882C10.4955 8.30723 11.4905 6.29623 11.4905 5.01123C11.4889 3.6882 10.9626 2.41982 10.027 1.48435C9.09145 0.54887 7.82302 0.0226882 6.49999 0.0212326ZM6.49999 7.00023C6.10443 7.00023 5.71775 6.88294 5.38885 6.66317C5.05995 6.44341 4.80361 6.13105 4.65223 5.7656C4.50086 5.40015 4.46125 4.99801 4.53842 4.61005C4.61559 4.22209 4.80607 3.86572 5.08578 3.58602C5.36548 3.30631 5.72185 3.11583 6.10981 3.03866C6.49777 2.96149 6.89991 3.0011 7.26536 3.15247C7.63081 3.30385 7.94317 3.56019 8.16293 3.88909C8.38269 4.21799 8.49999 4.60467 8.49999 5.00023C8.49999 5.53067 8.28928 6.03937 7.9142 6.41445C7.53913 6.78952 7.03042 7.00023 6.49999 7.00023Z" fill="#7A7878"/>
</g>
<defs>
<clipPath id="clip0_1_66">
<rect width="12" height="12" fill="white" transform="translate(0.5)"/>
</clipPath>
</defs>
</svg>
