<svg width="15" height="13" viewBox="0 0 15 13" fill="none" xmlns="http://www.w3.org/2000/svg">
<rect width="15" height="13" fill="#1E1E1E"/>
<g id="Unit details1">
<rect x="-340" y="-68" width="375" height="812" rx="15" fill="#FAFAFA"/>
<g id="Frame 1618867036">
<g id="Frame 1618867330">
<g id="Frame 89">
<circle id="Ellipse 15" cx="8" cy="6" r="12" transform="rotate(180 8 6)" fill="#FFC745"/>
<path id="Vector" d="M1.91581 7.99987H10.7088L8.26981 10.4389C7.98842 10.7201 7.83028 11.1017 7.83019 11.4995C7.83009 11.8974 7.98805 12.279 8.26931 12.5604C8.55058 12.8418 8.9321 12.9999 9.32996 13C9.72782 13.0001 10.1094 12.8421 10.3908 12.5609L13.9768 8.97487C14.632 8.31784 15 7.42779 15 6.49987C15 5.57196 14.632 4.68191 13.9768 4.02487L10.3908 0.438872C10.1094 0.15761 9.72782 -0.000348091 9.32996 -0.000254631C8.9321 -0.000161171 8.55058 0.157979 8.26931 0.439374C7.98805 0.720769 7.83009 1.10237 7.83019 1.50023C7.83028 1.89808 7.98842 2.27961 8.26981 2.56087L10.7088 4.99987H1.91581C1.51799 4.99987 1.13646 5.15791 0.855154 5.43921C0.57385 5.72052 0.415813 6.10205 0.415813 6.49987C0.415813 6.8977 0.57385 7.27923 0.855154 7.56053C1.13646 7.84184 1.51799 7.99987 1.91581 7.99987Z" fill="white"/>
</g>
</g>
</g>
</g>
</svg>
